<svg width="116" height="130" viewBox="0 0 116 130" fill="none" xmlns="http://www.w3.org/2000/svg">
<circle cx="58" cy="53.5" r="34.5" stroke="#996452" stroke-width="4"/>
<path d="M58 36.4721L61.823 48.2381L62.272 49.6201H63.7251L76.0966 49.6201L66.0878 56.8918L64.9123 57.7459L65.3613 59.1279L69.1843 70.8939L59.1756 63.6221L58 62.768L56.8244 63.6221L46.8157 70.8939L50.6387 59.1279L51.0877 57.7459L49.9122 56.8918L39.9034 49.6201L52.2749 49.6201H53.728L54.177 48.2381L58 36.4721Z" stroke="#996452" stroke-width="4"/>
<path d="M19.5 86.0001C9.99997 76.0001 -2.10003 47.7001 19.5 20.5001C32.5 5.49998 67.5 -10 96.5 20.5001C106 32 118.5 57 96.5 87.0001" stroke="#996452" stroke-width="4"/>
<path d="M41 101C47 103.167 61.9 106.2 73.5 101" stroke="#996452" stroke-width="4"/>
<path d="M28.5 72C28.1 72.4 12 97.1667 4 109.5L21 108L26.5 124.5L50 87.5" stroke="#996452" stroke-width="4"/>
<path d="M87.5 72C87.9 72.4 104 97.1667 112 109.5L95 108L89.5 124.5L66 87.5" stroke="#996452" stroke-width="4"/>
</svg>
