<svg xmlns="http://www.w3.org/2000/svg" width="121" height="17" viewBox="0 0 121 17">
  <defs>
    <linearGradient id="divider-dark" x1="0%" y1="50%" y2="50%">
      <stop offset="0%" stop-color="#C3C3C3"/>
      <stop offset="100%" stop-color="#C3C3C3" stop-opacity="0"/>
    </linearGradient>
  </defs>
  <path fill="url(#divider-dark)" fill-rule="evenodd" d="M11.5007476,7.99850474 L120.499252,7.99850474 C120.775808,7.99850474 121,8.22269709 121,8.49925237 C121,8.77580765 120.775808,9 120.499252,9 L11.5007476,9 C11.2241924,9 11,8.77580765 11,8.49925237 C11,8.22269709 11.2241924,7.99850474 11.5007476,7.99850474 Z M8.5,9.5 C7.94771525,9.5 7.5,9.05228475 7.5,8.5 C7.5,7.94771525 7.94771525,7.5 8.5,7.5 C9.05228475,7.5 9.5,7.94771525 9.5,8.5 C9.5,9.05228475 9.05228475,9.5 8.5,9.5 Z M2,10 C1.17157288,10 0,9.32842712 0,8.5 C0,7.67157288 1.17157288,7 2,7 C2.82842712,7 6,7.67157288 6,8.5 C6,9.32842712 2.82842712,10 2,10 Z M8.5,17 C7.67157288,17 7,15.8284271 7,15 C7,14.1715729 7.67157288,11 8.5,11 C9.32842712,11 10,14.1715729 10,15 C10,15.8284271 9.32842712,17 8.5,17 Z M8.5,6 C7.67157288,6 7,3 7,2 C7,1 7.67157288,5.32907052e-15 8.5,5.32907052e-15 C9.32842712,5.32907052e-15 10,1.17157288 10,2 C10,2.82842712 9.32842712,6 8.5,6 Z"/>
</svg>
