<svg width="105" height="103" viewBox="0 0 105 103" fill="none" xmlns="http://www.w3.org/2000/svg">
<path d="M11.7838 79L4 100L28 93.6364" stroke="#996452" stroke-width="4"/>
<path d="M43.0741 40.0421L36.0741 25.0421C24.8741 24.2421 23.0741 35.0421 23.5741 40.5421C32.3741 64.1421 51.9075 75.0421 60.5741 77.5421C75.3741 82.3421 82.0741 72.5421 81.0741 65.5421L67.5741 60.0421L60.5741 65.5421C49.3741 63.5421 41.2408 52.3754 38.5741 47.0421L43.0741 40.0421Z" stroke="#996452" stroke-width="4"/>
<path d="M12.5 80.5001C5.66666 70.8334 -3.90001 45.9001 12.5 23.5001C27.875 2.50001 65 -10.5 92.5 23.5001C92.5 23.5001 114.5 51.0001 92.5 80.5001C82.8333 92.1667 60 108.5 26.5 93.5001" stroke="#996452" stroke-width="4"/>
</svg>
